<?xml version="1.0" encoding="utf-8"?>
<!-- Generator: Adobe Illustrator 21.0.2, SVG Export Plug-In . SVG Version: 6.00 Build 0)  -->
<svg version="1.1" id="編集モード" xmlns="http://www.w3.org/2000/svg" xmlns:xlink="http://www.w3.org/1999/xlink" x="0px"
	 y="0px" width="141px" height="35px" viewBox="0 0 297.6 38.8" style="enable-background:new 0 0 297.6 38.8; width: 141px; height: 35px;" xml:space="preserve">
<style type="text/css">
	.st0{fill:#FFFFFF;}
</style>
<g>
	<g>
		<g>
			<path class="st0" d="M53,10.7h2.3v18.7h8.6v2.3H53V10.7z"/>
			<path class="st0" d="M69.9,17.8H72v13.9h-2.1V17.8z"/>
			<path class="st0" d="M91.5,31.1c0,2.5-0.5,4.5-1.8,5.8s-2.8,2-5,2c-1.2,0-2.3-0.2-3.3-0.5c-1-0.4-2-1.1-2.8-2.1l1.5-1.9
				c0.7,0.8,1.3,1.4,2.1,1.8c0.8,0.4,1.6,0.7,2.5,0.7c0.9,0,1.6-0.1,2.3-0.4c0.7-0.3,1.1-0.8,1.4-1.2c0.3-0.5,0.7-1.1,0.8-1.8
				c0.1-0.7,0.2-1.4,0.2-2.1v-1.8l0,0c-0.5,0.9-1.2,1.5-2,2c-0.8,0.4-1.6,0.7-2.4,0.7c-1,0-1.9-0.2-2.7-0.5
				c-0.8-0.3-1.5-0.9-2.1-1.5c-0.5-0.7-1.1-1.4-1.3-2.3c-0.3-0.9-0.4-1.9-0.4-2.8c0-1.1,0.1-2.2,0.4-3.1c0.3-0.9,0.8-1.6,1.3-2.3
				c0.5-0.7,1.3-1.1,2.1-1.4c0.8-0.3,1.8-0.5,2.7-0.5c0.4,0,0.9,0,1.3,0.1c0.4,0.1,0.9,0.3,1.2,0.5c0.4,0.2,0.8,0.5,1.1,0.9
				c0.3,0.3,0.5,0.8,0.8,1.2l0,0v-2.4h2.1V31.1z M80.5,24.7c0,0.8,0.1,1.4,0.3,2c0.2,0.7,0.5,1.1,1,1.5c0.4,0.4,0.9,0.8,1.4,1.1
				c0.5,0.2,1.1,0.4,1.8,0.4c0.8,0,1.3-0.1,1.9-0.4c0.5-0.3,1-0.7,1.4-1.1c0.3-0.4,0.7-1,0.9-1.6c0.2-0.7,0.3-1.2,0.3-2
				c0-0.8-0.1-1.4-0.3-2.1s-0.5-1.2-0.9-1.6c-0.4-0.4-0.9-0.8-1.4-1.1c-0.5-0.2-1.2-0.3-1.9-0.3c-0.7,0-1.3,0.1-1.8,0.4
				c-0.5,0.2-1,0.7-1.4,1.1c-0.4,0.4-0.7,1-0.9,1.6C80.6,23.3,80.5,24.1,80.5,24.7z"/>
			<path class="st0" d="M98,10.7h2.1v9.1l0,0c0.1-0.3,0.3-0.5,0.5-0.8c0.2-0.2,0.5-0.5,0.9-0.8s0.8-0.4,1.2-0.5
				c0.4-0.1,0.9-0.2,1.3-0.2c0.8,0,1.5,0.1,2.1,0.4c0.5,0.3,1.1,0.7,1.5,1.2c0.4,0.5,0.7,1.1,0.9,1.8c0.2,0.7,0.3,1.4,0.3,2.3v8.5
				h-2.1v-8.3c0-1.2-0.2-2.1-0.7-2.7c-0.4-0.7-1.2-1-2.2-1c-0.7,0-1.3,0.1-1.8,0.4c-0.4,0.2-0.9,0.7-1.2,1.1c-0.3,0.4-0.5,1-0.7,1.6
				s-0.2,1.4-0.2,2.2v6.8H98L98,10.7L98,10.7z"/>
			<path class="st0" d="M122.9,19.8h-3.7v6.9c0,0.4,0,0.9,0,1.3s0.1,0.8,0.2,1c0.1,0.2,0.3,0.5,0.5,0.7c0.2,0.2,0.7,0.2,1.1,0.2
				c0.3,0,0.7,0,1-0.1s0.7-0.2,0.9-0.3l0.1,2.1c-0.3,0.2-0.8,0.3-1.2,0.4c-0.4,0.1-0.9,0.1-1.2,0.1c-0.8,0-1.3-0.1-1.8-0.3
				c-0.4-0.2-0.8-0.5-1.1-0.9c-0.2-0.4-0.4-0.9-0.5-1.4c-0.1-0.5-0.1-1.2-0.1-2v-7.7h-2.7v-2h2.7v-3.9h2.1v3.9h3.7
				C122.9,17.8,122.9,19.8,122.9,19.8z"/>
			<path class="st0" d="M128.4,21.1c0-0.7,0-1.2,0-1.8s0-1.1,0-1.5h2c0,0.3,0,0.8,0,1.1s0,0.8,0,1.2l0,0c0.1-0.3,0.3-0.7,0.5-1
				c0.2-0.3,0.5-0.5,0.9-0.9c0.3-0.2,0.8-0.4,1.2-0.5c0.4-0.1,0.9-0.2,1.4-0.2c0.8,0,1.5,0.1,2.1,0.4c0.5,0.3,1.1,0.7,1.5,1.2
				c0.4,0.5,0.7,1.1,0.9,1.8c0.2,0.7,0.3,1.4,0.3,2.3v8.5h-2.1v-8.3c0-1.2-0.2-2.1-0.7-2.7c-0.4-0.7-1.2-1-2.2-1
				c-0.7,0-1.3,0.1-1.8,0.4c-0.4,0.2-0.9,0.7-1.2,1.1c-0.3,0.4-0.5,1-0.7,1.6s-0.2,1.4-0.2,2.2v6.8h-2.1V21.1z"/>
			<path class="st0" d="M146.3,17.8h2.1v13.9h-2.1V17.8z"/>
			<path class="st0" d="M155.3,21.1c0-0.7,0-1.2,0-1.8s0-1.1,0-1.5h2c0,0.3,0,0.8,0,1.1s0,0.8,0,1.2l0,0c0.1-0.3,0.3-0.7,0.5-1
				c0.2-0.3,0.5-0.5,0.9-0.9c0.3-0.2,0.8-0.4,1.2-0.5c0.4-0.1,0.9-0.2,1.4-0.2c0.8,0,1.5,0.1,2.1,0.4c0.5,0.3,1.1,0.7,1.5,1.2
				c0.4,0.5,0.7,1.1,0.9,1.8c0.2,0.7,0.3,1.4,0.3,2.3v8.5H164v-8.3c0-1.2-0.2-2.1-0.7-2.7c-0.4-0.7-1.2-1-2.2-1
				c-0.7,0-1.3,0.1-1.8,0.4c-0.4,0.2-0.9,0.7-1.2,1.1s-0.5,1-0.7,1.6s-0.2,1.4-0.2,2.2v6.8h-2.1V21.1z"/>
			<path class="st0" d="M184.9,31.1c0,2.5-0.5,4.5-1.8,5.8s-2.8,2-5,2c-1.2,0-2.3-0.2-3.3-0.5c-1-0.4-2-1.1-2.8-2.1l1.5-1.9
				c0.7,0.8,1.3,1.4,2.1,1.8c0.8,0.4,1.6,0.7,2.5,0.7c0.9,0,1.6-0.1,2.3-0.4c0.7-0.3,1.1-0.8,1.4-1.2c0.3-0.5,0.7-1.1,0.8-1.8
				c0.1-0.7,0.2-1.4,0.2-2.1v-1.8l0,0c-0.5,0.9-1.2,1.5-2,2c-0.8,0.4-1.6,0.7-2.4,0.7c-1,0-1.9-0.2-2.7-0.5
				c-0.8-0.3-1.5-0.9-2.1-1.5c-0.5-0.7-1.1-1.4-1.3-2.3c-0.3-0.9-0.4-1.9-0.4-2.8c0-1.1,0.1-2.2,0.4-3.1c0.3-0.9,0.8-1.6,1.3-2.3
				c0.5-0.7,1.3-1.1,2.1-1.4c0.8-0.3,1.8-0.5,2.7-0.5c0.4,0,0.9,0,1.3,0.1c0.4,0.1,0.9,0.3,1.2,0.5c0.4,0.2,0.8,0.5,1.1,0.9
				c0.3,0.3,0.5,0.8,0.8,1.2l0,0v-2.4h2.1L184.9,31.1L184.9,31.1z M173.9,24.7c0,0.8,0.1,1.4,0.3,2c0.2,0.7,0.5,1.1,1,1.5
				c0.4,0.4,0.9,0.8,1.4,1.1c0.5,0.2,1.1,0.4,1.8,0.4c0.8,0,1.3-0.1,1.9-0.4c0.5-0.3,1-0.7,1.4-1.1c0.3-0.4,0.7-1,0.9-1.6
				c0.2-0.7,0.3-1.2,0.3-2c0-0.8-0.1-1.4-0.3-2.1c-0.2-0.7-0.5-1.2-0.9-1.6c-0.4-0.4-0.9-0.8-1.4-1.1c-0.5-0.2-1.2-0.3-1.9-0.3
				c-0.7,0-1.3,0.1-1.8,0.4c-0.5,0.2-1,0.7-1.4,1.1c-0.4,0.4-0.7,1-0.9,1.6C174,23.3,173.9,24.1,173.9,24.7z"/>
			<path class="st0" d="M200.7,10.7h4.8c0.9,0,1.9,0.1,2.7,0.2c0.9,0.1,1.8,0.3,2.4,0.8c0.8,0.4,1.3,1,1.8,1.8
				c0.4,0.8,0.7,1.8,0.7,3.1c0,1.5-0.4,2.8-1.2,3.7c-0.8,0.9-2,1.5-3.5,1.9l5.4,9.6h-2.7l-5.1-9.4H203v9.4h-2.3L200.7,10.7
				L200.7,10.7z M203,19.9h2c0.7,0,1.3,0,2-0.1c0.7,0,1.3-0.2,1.9-0.4s1-0.5,1.4-1c0.3-0.4,0.5-1.1,0.5-2c0-0.8-0.1-1.3-0.4-1.9
				c-0.2-0.4-0.7-0.8-1.1-1.1c-0.4-0.2-0.9-0.4-1.4-0.4c-0.5-0.1-1.1-0.1-1.6-0.1H203L203,19.9L203,19.9z"/>
			<path class="st0" d="M230.6,29.2c-0.8,1.1-1.5,1.9-2.4,2.2c-0.9,0.3-2,0.7-3.1,0.7c-1,0-1.9-0.2-2.6-0.5c-0.8-0.4-1.4-0.9-2-1.5
				c-0.5-0.7-1-1.4-1.2-2.3c-0.3-0.9-0.4-1.9-0.4-2.8c0-1.1,0.1-2.1,0.4-3c0.3-0.9,0.8-1.6,1.3-2.3s1.2-1.1,2.1-1.5
				c0.8-0.3,1.6-0.5,2.5-0.5c0.9,0,1.6,0.1,2.4,0.4c0.8,0.3,1.3,0.8,1.9,1.4c0.5,0.7,0.9,1.4,1.2,2.3c0.3,0.9,0.4,2,0.4,3.1v0.8
				h-10.1c0,0.5,0.2,1.2,0.4,1.8c0.2,0.5,0.5,1,0.9,1.4c0.3,0.4,0.8,0.8,1.2,1s1,0.3,1.5,0.3c0.9,0,1.6-0.2,2.3-0.5
				c0.7-0.3,1.2-0.9,1.6-1.5L230.6,29.2z M228.9,23.5c0-1.2-0.3-2.2-1.1-2.8c-0.7-0.8-1.5-1.1-2.7-1.1s-2.1,0.3-2.8,1.1
				c-0.8,0.8-1.1,1.6-1.3,2.8H228.9z"/>
			<path class="st0" d="M243.1,31.7h-2.3l-5.1-13.9h2.4l3.9,10.9l0,0l3.7-10.9h2.3L243.1,31.7z"/>
			<rect x="254.2" y="17.8" class="st0" width="2.1" height="13.9"/>
			<circle class="st0" cx="255.1" cy="12.1" r="1.5"/>
			<circle class="st0" cx="147.3" cy="12.1" r="1.5"/>
			<path class="st0" d="M273.9,29.2c-0.8,1.1-1.5,1.9-2.4,2.2c-0.9,0.4-2,0.7-3.1,0.7c-1,0-1.9-0.2-2.6-0.5c-0.8-0.4-1.4-0.9-2-1.5
				c-0.5-0.7-1-1.4-1.2-2.3c-0.3-0.9-0.4-1.9-0.4-2.8c0-1.1,0.1-2.1,0.4-3c0.3-0.9,0.8-1.6,1.3-2.3s1.2-1.1,2.1-1.5
				c0.8-0.3,1.6-0.5,2.5-0.5s1.6,0.1,2.4,0.4c0.8,0.3,1.3,0.8,1.9,1.4s0.9,1.4,1.2,2.3c0.3,0.9,0.4,2,0.4,3.1v0.8h-10.1
				c0,0.5,0.2,1.2,0.4,1.8c0.2,0.5,0.5,1,0.9,1.4c0.3,0.4,0.8,0.8,1.2,1s1,0.3,1.5,0.3c0.9,0,1.6-0.2,2.3-0.5
				c0.7-0.3,1.2-0.9,1.6-1.5L273.9,29.2z M272.1,23.5c0-1.2-0.3-2.2-1.1-2.8c-0.7-0.8-1.5-1.1-2.7-1.1c-1.2,0-2.1,0.3-2.8,1.1
				c-0.8,0.8-1.1,1.6-1.3,2.8H272.1z"/>
			<path class="st0" d="M293.6,31.7h-2.1L288,21l0,0l-3.2,10.7h-2.2l-4-13.9h2.3l2.8,10.7l0,0l3.3-10.7h2.2l3.3,10.7l0,0l2.8-10.7
				h2.3L293.6,31.7z"/>
			<circle class="st0" cx="71" cy="12.1" r="1.5"/>
		</g>
	</g>
	<g>
		<circle class="st0" cx="16.2" cy="13.7" r="2.2"/>
		<path class="st0" d="M26.1,28c-0.7-1.6-1-3.4-0.5-5c0.8-3.4,3.8-5.6,4.5-9c0.8-3.8-0.3-7.8-3.1-10.5C24.7,1.2,21.7,0,17.7,0H0
			v38.8h7.5V6.8h9.6c1.6,0,3,0.4,4,1.4c1,0.9,1.5,2.2,1.5,3.7c0,3-2,5.3-3.3,7.8c-1.3,2.6-1.4,5.6-0.9,8.4c0.2,1.1,0.5,2.2,1,3.3
			c0.3,1,0.8,2,1.3,3c0.2,0.4,1.8,4.5,2.3,4.5h8.8C30.1,35.2,27.6,31.7,26.1,28z"/>
	</g>
</g>
</svg>
